<svg xmlns="http://www.w3.org/2000/svg" version="1.1" xmlns:xlink="http://www.w3.org/1999/xlink" xmlns:svgjs="http://svgjs.com/svgjs" width="100%" height="100%" preserveAspectRatio="none" viewBox="0 0 1440 560">
    <g mask="url(&quot;#SvgjsMask1903&quot;)" fill="none">
        <rect width="100%" height="100%" x="0" y="0" fill="url(#SvgjsRadialGradient1904)"></rect>
        <path d="M1440 0L1194.82 0L1440 68.12z" fill="rgba(255, 255, 255, .1)"></path>
        <path d="M1194.82 0L1440 68.12L1440 111.82000000000001L784.9099999999999 0z" fill="rgba(255, 255, 255, .075)"></path>
        <path d="M784.91 0L1440 111.82000000000001L1440 159.68L416.08 0z" fill="rgba(255, 255, 255, .05)"></path>
        <path d="M416.0799999999999 0L1440 159.68L1440 300.37L278.6199999999999 0z" fill="rgba(255, 255, 255, .025)"></path>
        <path d="M0 560L449.04 560L0 287.23z" fill="rgba(0, 0, 0, .1)"></path>
        <path d="M0 287.23L449.04 560L901.21 560L0 169.70000000000002z" fill="rgba(0, 0, 0, .075)"></path>
        <path d="M0 169.70000000000005L901.21 560L1091.5700000000002 560L0 94.69000000000004z" fill="rgba(0, 0, 0, .05)"></path>
        <path d="M0 94.69000000000005L1091.5700000000002 560L1170.41 560L0 84.60000000000005z" fill="rgba(0, 0, 0, .025)"></path>
    </g>
    <defs>
        <mask id="SvgjsMask1903">
            <rect width="100%" height="100%" fill="#ffffff"></rect>
        </mask>
        <radialGradient cx="100%" cy="0%" r="1545.06" gradientUnits="userSpaceOnUse" id="SvgjsRadialGradient1904">
            <stop stop-color="rgba(14, 42, 71, 1)" offset="0"></stop>
            <stop stop-color="rgba(104, 105, 246, 1)" offset="1"></stop>
        </radialGradient>
    </defs>
</svg>